<?xml version="1.0" standalone="no"?>
<!DOCTYPE svg PUBLIC "-//W3C//DTD SVG 20010904//EN"
 "http://www.w3.org/TR/2001/REC-SVG-20010904/DTD/svg10.dtd">
<svg version="1.0" xmlns="http://www.w3.org/2000/svg"
 width="512.000000pt" height="512.000000pt" viewBox="0 0 512.000000 512.000000"
 preserveAspectRatio="xMidYMid meet">
<metadata>
Created by potrace 1.14, written by Peter Selinger 2001-2017
</metadata>
<g transform="translate(0.000000,512.000000) scale(0.100000,-0.100000)"
fill="#000000" stroke="none">
<path d="M1150 3874 c-19 -3 -73 -14 -119 -25 -458 -113 -769 -516 -831 -1078
-18 -158 -8 -435 19 -574 98 -492 389 -829 804 -931 150 -37 398 -38 593 -1
126 23 289 79 404 137 205 105 260 153 260 231 0 46 -37 121 -79 162 -50 47
-91 42 -192 -26 -135 -91 -235 -135 -394 -175 -138 -35 -376 -45 -490 -19
-367 81 -595 458 -595 982 0 242 41 421 142 616 32 63 64 104 133 173 77 78
104 98 185 137 269 130 600 94 782 -85 87 -84 147 -234 148 -366 0 -63 22
-106 61 -123 43 -18 154 -18 197 0 62 26 62 27 62 478 0 385 -1 410 -19 439
-26 42 -75 58 -161 52 -114 -9 -140 -41 -140 -180 l0 -80 -72 67 c-80 74 -205
141 -318 170 -64 16 -305 28 -380 19z"/>
<path d="M2800 3817 c-36 -18 -54 -63 -54 -132 0 -74 22 -119 65 -134 19 -7
110 -11 225 -11 l194 0 0 -979 0 -979 -202 -4 c-216 -3 -234 -7 -265 -55 -24
-37 -24 -149 0 -187 38 -58 -2 -56 1077 -56 1079 0 1038 -2 1077 56 17 26 18
62 21 494 3 507 1 525 -51 564 -41 31 -183 31 -224 0 -49 -37 -52 -60 -52
-451 l-1 -363 -530 0 -530 0 0 980 0 980 279 0 c178 0 289 4 310 11 43 15 65
60 65 134 0 69 -18 114 -54 132 -19 10 -171 13 -675 13 -504 0 -656 -3 -675
-13z"/>
</g>
</svg>
